<svg xmlns="http://www.w3.org/2000/svg" width="1280" height="640" viewBox="0 0 1280 640" role="img" aria-labelledby="title desc">
  <title id="title">Cofounder Crew</title>
  <desc id="desc">Conversation-first local AI teams for Codex.</desc>
  <defs>
    <linearGradient id="bg" x1="0" x2="1" y1="0" y2="1">
      <stop offset="0%" stop-color="#0b1020"/>
      <stop offset="54%" stop-color="#101827"/>
      <stop offset="100%" stop-color="#11231d"/>
    </linearGradient>
    <linearGradient id="line" x1="0" x2="1" y1="0" y2="0">
      <stop offset="0%" stop-color="#44c7a1"/>
      <stop offset="50%" stop-color="#64a8ff"/>
      <stop offset="100%" stop-color="#f0c86a"/>
    </linearGradient>
  </defs>
  <rect width="1280" height="640" fill="url(#bg)"/>
  <rect x="72" y="72" width="1136" height="496" rx="28" fill="#0e1525" stroke="#263145" stroke-width="2"/>
  <rect x="108" y="112" width="180" height="40" rx="20" fill="#16243b" stroke="#2d3b53"/>
  <circle cx="132" cy="132" r="7" fill="#44c7a1"/>
  <text x="152" y="139" fill="#d7e0ed" font-family="Inter, Arial, sans-serif" font-size="20" font-weight="700">Codex-first</text>
  <text x="108" y="290" fill="#f5f7fb" font-family="Inter, Arial, sans-serif" font-size="82" font-weight="800" letter-spacing="0">Cofounder Crew</text>
  <text x="112" y="360" fill="#b9c5d8" font-family="Inter, Arial, sans-serif" font-size="34" font-weight="500">Conversation-first local AI teams for Codex.</text>
  <text x="112" y="424" fill="#8fa1ba" font-family="Inter, Arial, sans-serif" font-size="28" font-weight="500">No dashboard / No orchestration server / No new IDE</text>
  <rect x="112" y="486" width="420" height="8" rx="4" fill="url(#line)"/>
  <g transform="translate(838 166)">
    <rect x="0" y="0" width="250" height="64" rx="14" fill="#152236" stroke="#2c3a53"/>
    <text x="28" y="41" fill="#d7e0ed" font-family="Inter, Arial, sans-serif" font-size="24" font-weight="700">lead</text>
    <path d="M178 32h44" stroke="#44c7a1" stroke-width="5" stroke-linecap="round"/>
    <circle cx="222" cy="32" r="8" fill="#44c7a1"/>
    <rect x="-78" y="138" width="250" height="64" rx="14" fill="#152236" stroke="#2c3a53"/>
    <text x="-50" y="179" fill="#d7e0ed" font-family="Inter, Arial, sans-serif" font-size="24" font-weight="700">backend</text>
    <path d="M92 138l54-72" stroke="#64a8ff" stroke-width="4" stroke-linecap="round"/>
    <rect x="134" y="256" width="250" height="64" rx="14" fill="#152236" stroke="#2c3a53"/>
    <text x="162" y="297" fill="#d7e0ed" font-family="Inter, Arial, sans-serif" font-size="24" font-weight="700">reviewer</text>
    <path d="M224 256l-54-72" stroke="#f0c86a" stroke-width="4" stroke-linecap="round"/>
  </g>
</svg>
